<mxfile host="65bd71144e">
    <diagram id="fMZTwIfMVCE55u3-ihZb" name="Page-1">
        <mxGraphModel dx="476" dy="843" grid="1" gridSize="10" guides="1" tooltips="1" connect="1" arrows="1" fold="1" page="1" pageScale="1" pageWidth="827" pageHeight="1169" background="#000000" math="0" shadow="0">
            <root>
                <mxCell id="0"/>
                <mxCell id="1" parent="0"/>
                <mxCell id="2" value="" style="rounded=1;whiteSpace=wrap;html=1;strokeColor=#FFB366;strokeWidth=4;fillColor=#000000;" parent="1" vertex="1">
                    <mxGeometry x="240" y="200" width="220" height="340" as="geometry"/>
                </mxCell>
                <mxCell id="3" value="" style="rounded=1;whiteSpace=wrap;html=1;strokeColor=#9933FF;strokeWidth=4;fillColor=#000000;" parent="1" vertex="1">
                    <mxGeometry x="490" y="200" width="220" height="340" as="geometry"/>
                </mxCell>
                <mxCell id="5" value="&lt;font color=&quot;#ffffff&quot;&gt;Call Stack&lt;/font&gt;" style="rounded=1;whiteSpace=wrap;html=1;strokeColor=#454545;strokeWidth=4;fillColor=#000000;" parent="1" vertex="1">
                    <mxGeometry x="290" y="190" width="120" height="30" as="geometry"/>
                </mxCell>
                <mxCell id="6" value="&lt;font color=&quot;#ffffff&quot;&gt;Web APIs&lt;/font&gt;" style="rounded=1;whiteSpace=wrap;html=1;strokeColor=#454545;strokeWidth=4;fillColor=#000000;" parent="1" vertex="1">
                    <mxGeometry x="540" y="190" width="120" height="30" as="geometry"/>
                </mxCell>
                <mxCell id="7" value="" style="rounded=1;whiteSpace=wrap;html=1;strokeColor=#FF33FF;strokeWidth=4;fillColor=#000000;" parent="1" vertex="1">
                    <mxGeometry x="410" y="570" width="300" height="100" as="geometry"/>
                </mxCell>
                <mxCell id="8" value="" style="rounded=1;whiteSpace=wrap;html=1;strokeColor=#FF33FF;strokeWidth=4;fillColor=#000000;" parent="1" vertex="1">
                    <mxGeometry x="410" y="700" width="300" height="100" as="geometry"/>
                </mxCell>
                <mxCell id="9" value="&lt;font color=&quot;#ffffff&quot;&gt;Task Queue&lt;/font&gt;" style="rounded=1;whiteSpace=wrap;html=1;strokeColor=#454545;strokeWidth=4;fillColor=#000000;" parent="1" vertex="1">
                    <mxGeometry x="500" y="560" width="120" height="30" as="geometry"/>
                </mxCell>
                <mxCell id="10" value="&lt;font color=&quot;#ffffff&quot;&gt;Microtask Queue&lt;/font&gt;" style="rounded=1;whiteSpace=wrap;html=1;strokeColor=#454545;strokeWidth=4;fillColor=#000000;" parent="1" vertex="1">
                    <mxGeometry x="500" y="690" width="120" height="30" as="geometry"/>
                </mxCell>
                <mxCell id="12" value="" style="rounded=1;whiteSpace=wrap;html=1;strokeColor=#3c253c;strokeWidth=4;fillColor=#000000;" parent="1" vertex="1">
                    <mxGeometry x="250" y="570" width="130" height="230" as="geometry"/>
                </mxCell>
                <mxCell id="13" value="&lt;font color=&quot;#ffffff&quot;&gt;Event Loop&lt;/font&gt;" style="rounded=1;whiteSpace=wrap;html=1;strokeColor=#454545;strokeWidth=4;fillColor=#000000;" parent="1" vertex="1">
                    <mxGeometry x="265" y="560" width="100" height="30" as="geometry"/>
                </mxCell>
                <mxCell id="14" value="" style="rounded=1;whiteSpace=wrap;html=1;strokeColor=#e0dce0;strokeWidth=4;dashed=1;fillColor=#000000;" parent="1" vertex="1">
                    <mxGeometry x="500" y="230" width="200" height="300" as="geometry"/>
                </mxCell>
                <mxCell id="15" value="&lt;font color=&quot;#ffffff&quot;&gt;fetch&lt;/font&gt;" style="rounded=1;whiteSpace=wrap;html=1;fillColor=#000000;" vertex="1" parent="1">
                    <mxGeometry x="510" y="250" width="80" height="30" as="geometry"/>
                </mxCell>
                <mxCell id="16" value="&lt;font color=&quot;#ffffff&quot;&gt;setTimeout&lt;/font&gt;" style="rounded=1;whiteSpace=wrap;html=1;fillColor=#000000;" vertex="1" parent="1">
                    <mxGeometry x="600" y="250" width="80" height="30" as="geometry"/>
                </mxCell>
                <mxCell id="17" value="&lt;font color=&quot;#ffffff&quot;&gt;URL&lt;/font&gt;" style="rounded=1;whiteSpace=wrap;html=1;fillColor=#000000;" vertex="1" parent="1">
                    <mxGeometry x="510" y="290" width="80" height="30" as="geometry"/>
                </mxCell>
                <mxCell id="19" value="&lt;font color=&quot;#ffffff&quot;&gt;localStorage&lt;/font&gt;" style="rounded=1;whiteSpace=wrap;html=1;fillColor=#000000;" vertex="1" parent="1">
                    <mxGeometry x="600" y="290" width="80" height="30" as="geometry"/>
                </mxCell>
                <mxCell id="20" value="&lt;font color=&quot;#ffffff&quot;&gt;HTMLDivElement&lt;/font&gt;" style="rounded=1;whiteSpace=wrap;html=1;fillColor=#000000;" vertex="1" parent="1">
                    <mxGeometry x="545" y="330" width="110" height="30" as="geometry"/>
                </mxCell>
                <mxCell id="21" value="&lt;font color=&quot;#ffffff&quot;&gt;document&lt;/font&gt;" style="rounded=1;whiteSpace=wrap;html=1;fillColor=#000000;" vertex="1" parent="1">
                    <mxGeometry x="510" y="365" width="80" height="30" as="geometry"/>
                </mxCell>
                <mxCell id="22" value="&lt;font color=&quot;#ffffff&quot;&gt;indexedDB&lt;/font&gt;" style="rounded=1;whiteSpace=wrap;html=1;fillColor=#000000;" vertex="1" parent="1">
                    <mxGeometry x="600" y="365" width="80" height="30" as="geometry"/>
                </mxCell>
                <mxCell id="23" value="&lt;font color=&quot;#ffffff&quot;&gt;Many more ...&lt;/font&gt;" style="rounded=1;whiteSpace=wrap;html=1;fillColor=#000000;" vertex="1" parent="1">
                    <mxGeometry x="545" y="420" width="110" height="30" as="geometry"/>
                </mxCell>
                <mxCell id="42" value="&lt;font color=&quot;#ffffff&quot;&gt;console.log(&quot;Data received: &quot;)&lt;/font&gt;" style="rounded=1;whiteSpace=wrap;html=1;strokeColor=#99FF99;strokeWidth=4;fillColor=#000000;" vertex="1" parent="1">
                    <mxGeometry x="265" y="490" width="165" height="30" as="geometry"/>
                </mxCell>
            </root>
        </mxGraphModel>
    </diagram>
</mxfile>